<svg width="1173" height="235" viewBox="0 0 1173 235" fill="none" xmlns="http://www.w3.org/2000/svg">
<path d="M265.365 224.264C265.077 224.264 264.773 224.24 264.453 224.192C264.149 224.144 263.813 224.08 263.445 224L263.685 220.712C263.909 220.776 264.141 220.808 264.381 220.808C265.037 220.808 265.549 220.544 265.917 220.016C266.285 219.472 266.549 218.696 266.709 217.688C266.869 216.68 266.973 215.456 267.021 214.016L267.261 207.2H280.173V224H276.333V209.48L277.221 210.368H269.805L270.597 209.432L270.453 213.872C270.405 215.52 270.293 216.984 270.117 218.264C269.941 219.544 269.669 220.632 269.301 221.528C268.933 222.424 268.429 223.104 267.789 223.568C267.149 224.032 266.341 224.264 265.365 224.264ZM285.833 228.848C285.161 228.848 284.497 228.744 283.841 228.536C283.185 228.328 282.649 228.04 282.233 227.672L283.601 225.008C283.889 225.264 284.217 225.464 284.585 225.608C284.969 225.752 285.345 225.824 285.713 225.824C286.241 225.824 286.657 225.696 286.961 225.44C287.281 225.2 287.569 224.792 287.825 224.216L288.497 222.632L288.785 222.224L293.417 211.088H297.017L291.185 224.792C290.769 225.832 290.289 226.648 289.745 227.24C289.217 227.832 288.625 228.248 287.969 228.488C287.329 228.728 286.617 228.848 285.833 228.848ZM288.041 224.504L282.281 211.088H286.145L290.609 221.888L288.041 224.504ZM306.959 219.056C306.431 219.344 305.847 219.576 305.207 219.752C304.567 219.928 303.863 220.016 303.095 220.016C301.399 220.016 300.095 219.632 299.183 218.864C298.271 218.08 297.815 216.84 297.815 215.144V211.088H301.559V214.904C301.559 215.704 301.767 216.28 302.183 216.632C302.599 216.968 303.183 217.136 303.935 217.136C304.479 217.136 304.999 217.072 305.495 216.944C306.007 216.816 306.495 216.632 306.959 216.392V219.056ZM306.695 224V211.088H310.439V224H306.695ZM322.842 220.928L322.026 221.792V211.088H325.77V221.792L324.906 220.928H330.858L330.018 221.792V211.088H333.738V224H314.034V211.088H317.754V221.792L316.914 220.928H322.842ZM345.059 224V221.48L344.819 220.928V216.416C344.819 215.616 344.571 214.992 344.075 214.544C343.595 214.096 342.851 213.872 341.843 213.872C341.155 213.872 340.475 213.984 339.803 214.208C339.147 214.416 338.587 214.704 338.123 215.072L336.779 212.456C337.483 211.96 338.331 211.576 339.323 211.304C340.315 211.032 341.323 210.896 342.347 210.896C344.315 210.896 345.843 211.36 346.931 212.288C348.019 213.216 348.563 214.664 348.563 216.632V224H345.059ZM341.123 224.192C340.115 224.192 339.251 224.024 338.531 223.688C337.811 223.336 337.259 222.864 336.875 222.272C336.491 221.68 336.299 221.016 336.299 220.28C336.299 219.512 336.483 218.84 336.851 218.264C337.235 217.688 337.835 217.24 338.651 216.92C339.467 216.584 340.531 216.416 341.843 216.416H345.275V218.6H342.251C341.371 218.6 340.763 218.744 340.427 219.032C340.107 219.32 339.947 219.68 339.947 220.112C339.947 220.592 340.131 220.976 340.499 221.264C340.883 221.536 341.403 221.672 342.059 221.672C342.683 221.672 343.243 221.528 343.739 221.24C344.235 220.936 344.595 220.496 344.819 219.92L345.395 221.648C345.123 222.48 344.627 223.112 343.907 223.544C343.187 223.976 342.259 224.192 341.123 224.192ZM359.952 224V219.704L360.48 220.304H356.904C355.048 220.304 353.592 219.92 352.536 219.152C351.48 218.384 350.952 217.28 350.952 215.84C350.952 214.304 351.504 213.128 352.608 212.312C353.728 211.496 355.232 211.088 357.12 211.088H363.288V224H359.952ZM350.76 224L354.192 219.08H358.008L354.744 224H350.76ZM359.952 218.552V213.176L360.48 214.136H357.192C356.424 214.136 355.824 214.28 355.392 214.568C354.976 214.856 354.768 215.32 354.768 215.96C354.768 217.192 355.56 217.808 357.144 217.808H360.48L359.952 218.552ZM373.683 224V211.088H386.523V224H382.779V213.32L383.619 214.16H376.563L377.403 213.32V224H373.683ZM388.481 223.976L388.673 220.904C388.769 220.92 388.865 220.936 388.961 220.952C389.057 220.952 389.145 220.952 389.225 220.952C389.673 220.952 390.025 220.824 390.281 220.568C390.537 220.312 390.729 219.968 390.857 219.536C390.985 219.088 391.073 218.584 391.121 218.024C391.185 217.464 391.233 216.88 391.265 216.272L391.457 211.088H402.497V224H398.753V213.248L399.593 214.16H393.929L394.721 213.2L394.553 216.44C394.505 217.592 394.409 218.648 394.265 219.608C394.137 220.568 393.921 221.4 393.617 222.104C393.313 222.792 392.905 223.328 392.393 223.712C391.881 224.08 391.225 224.264 390.425 224.264C390.137 224.264 389.833 224.24 389.513 224.192C389.193 224.144 388.849 224.072 388.481 223.976ZM413.825 224V221.48L413.585 220.928V216.416C413.585 215.616 413.337 214.992 412.841 214.544C412.361 214.096 411.617 213.872 410.609 213.872C409.921 213.872 409.241 213.984 408.569 214.208C407.913 214.416 407.353 214.704 406.889 215.072L405.545 212.456C406.249 211.96 407.097 211.576 408.089 211.304C409.081 211.032 410.089 210.896 411.113 210.896C413.081 210.896 414.609 211.36 415.697 212.288C416.785 213.216 417.329 214.664 417.329 216.632V224H413.825ZM409.889 224.192C408.881 224.192 408.017 224.024 407.297 223.688C406.577 223.336 406.025 222.864 405.641 222.272C405.257 221.68 405.065 221.016 405.065 220.28C405.065 219.512 405.249 218.84 405.617 218.264C406.001 217.688 406.601 217.24 407.417 216.92C408.233 216.584 409.297 216.416 410.609 216.416H414.041V218.6H411.017C410.137 218.6 409.529 218.744 409.193 219.032C408.873 219.32 408.713 219.68 408.713 220.112C408.713 220.592 408.897 220.976 409.265 221.264C409.649 221.536 410.169 221.672 410.825 221.672C411.449 221.672 412.009 221.528 412.505 221.24C413.001 220.936 413.361 220.496 413.585 219.92L414.161 221.648C413.889 222.48 413.393 223.112 412.673 223.544C411.953 223.976 411.025 224.192 409.889 224.192ZM423.341 224V213.296L424.181 214.16H418.973V211.088H431.429V214.16H426.221L427.061 213.296V224H423.341ZM441.574 224.288C441.542 224.288 441.454 224.288 441.31 224.288C441.166 224.288 441.03 224.288 440.902 224.288C440.774 224.288 440.686 224.288 440.638 224.288C437.838 224.24 435.67 223.64 434.134 222.488C432.598 221.336 431.83 219.672 431.83 217.496C431.83 215.352 432.59 213.72 434.11 212.6C435.646 211.464 437.846 210.888 440.71 210.872C440.742 210.872 440.822 210.872 440.95 210.872C441.094 210.872 441.23 210.872 441.358 210.872C441.486 210.872 441.566 210.872 441.598 210.872C444.494 210.872 446.734 211.432 448.318 212.552C449.918 213.672 450.718 215.32 450.718 217.496C450.718 219.704 449.918 221.392 448.318 222.56C446.734 223.712 444.486 224.288 441.574 224.288ZM441.454 221.408C442.782 221.408 443.862 221.272 444.694 221C445.526 220.712 446.134 220.28 446.518 219.704C446.918 219.112 447.118 218.376 447.118 217.496C447.118 216.648 446.926 215.952 446.542 215.408C446.158 214.848 445.542 214.432 444.694 214.16C443.862 213.888 442.782 213.752 441.454 213.752C441.406 213.752 441.31 213.752 441.166 213.752C441.022 213.752 440.926 213.752 440.878 213.752C439.598 213.752 438.558 213.896 437.758 214.184C436.958 214.472 436.374 214.888 436.006 215.432C435.638 215.976 435.454 216.664 435.454 217.496C435.454 218.36 435.638 219.08 436.006 219.656C436.374 220.232 436.958 220.664 437.758 220.952C438.558 221.24 439.598 221.392 440.878 221.408C440.926 221.408 441.022 221.408 441.166 221.408C441.31 221.408 441.406 221.408 441.454 221.408ZM439.558 228.656V206.192H442.99V228.656H439.558ZM459.301 224.192C457.925 224.192 456.701 223.904 455.629 223.328C454.573 222.752 453.733 221.968 453.109 220.976C452.501 219.968 452.197 218.824 452.197 217.544C452.197 216.248 452.501 215.104 453.109 214.112C453.733 213.104 454.573 212.32 455.629 211.76C456.701 211.184 457.925 210.896 459.301 210.896C460.661 210.896 461.877 211.184 462.949 211.76C464.021 212.32 464.861 213.096 465.469 214.088C466.077 215.08 466.381 216.232 466.381 217.544C466.381 218.824 466.077 219.968 465.469 220.976C464.861 221.968 464.021 222.752 462.949 223.328C461.877 223.904 460.661 224.192 459.301 224.192ZM459.301 221.12C459.925 221.12 460.485 220.976 460.981 220.688C461.477 220.4 461.869 219.992 462.157 219.464C462.445 218.92 462.589 218.28 462.589 217.544C462.589 216.792 462.445 216.152 462.157 215.624C461.869 215.096 461.477 214.688 460.981 214.4C460.485 214.112 459.925 213.968 459.301 213.968C458.677 213.968 458.117 214.112 457.621 214.4C457.125 214.688 456.725 215.096 456.421 215.624C456.133 216.152 455.989 216.792 455.989 217.544C455.989 218.28 456.133 218.92 456.421 219.464C456.725 219.992 457.125 220.4 457.621 220.688C458.117 220.976 458.677 221.12 459.301 221.12ZM476.564 224.192C475.476 224.192 474.524 223.952 473.708 223.472C472.892 222.992 472.252 222.264 471.788 221.288C471.34 220.296 471.116 219.048 471.116 217.544C471.116 216.024 471.332 214.776 471.764 213.8C472.196 212.824 472.82 212.096 473.636 211.616C474.452 211.136 475.428 210.896 476.564 210.896C477.78 210.896 478.868 211.176 479.828 211.736C480.804 212.28 481.572 213.048 482.132 214.04C482.708 215.032 482.996 216.2 482.996 217.544C482.996 218.904 482.708 220.08 482.132 221.072C481.572 222.064 480.804 222.832 479.828 223.376C478.868 223.92 477.78 224.192 476.564 224.192ZM468.932 228.656V211.088H472.508V213.728L472.436 217.568L472.676 221.384V228.656H468.932ZM475.916 221.12C476.54 221.12 477.092 220.976 477.572 220.688C478.068 220.4 478.46 219.992 478.748 219.464C479.052 218.92 479.204 218.28 479.204 217.544C479.204 216.792 479.052 216.152 478.748 215.624C478.46 215.096 478.068 214.688 477.572 214.4C477.092 214.112 476.54 213.968 475.916 213.968C475.292 213.968 474.732 214.112 474.236 214.4C473.74 214.688 473.348 215.096 473.06 215.624C472.772 216.152 472.628 216.792 472.628 217.544C472.628 218.28 472.772 218.92 473.06 219.464C473.348 219.992 473.74 220.4 474.236 220.688C474.732 220.976 475.292 221.12 475.916 221.12ZM485.62 224V211.088H489.532L494.404 219.92H492.844L498.052 211.088H501.556L501.604 224H498.22V214.928L498.796 215.312L494.356 222.752H492.772L488.308 215.048L489.004 214.88V224H485.62ZM512.919 224V221.48L512.679 220.928V216.416C512.679 215.616 512.431 214.992 511.935 214.544C511.455 214.096 510.711 213.872 509.703 213.872C509.015 213.872 508.335 213.984 507.663 214.208C507.007 214.416 506.447 214.704 505.983 215.072L504.639 212.456C505.343 211.96 506.191 211.576 507.183 211.304C508.175 211.032 509.183 210.896 510.207 210.896C512.175 210.896 513.703 211.36 514.791 212.288C515.879 213.216 516.423 214.664 516.423 216.632V224H512.919ZM508.983 224.192C507.975 224.192 507.111 224.024 506.391 223.688C505.671 223.336 505.119 222.864 504.735 222.272C504.351 221.68 504.159 221.016 504.159 220.28C504.159 219.512 504.343 218.84 504.711 218.264C505.095 217.688 505.695 217.24 506.511 216.92C507.327 216.584 508.391 216.416 509.703 216.416H513.135V218.6H510.111C509.231 218.6 508.623 218.744 508.287 219.032C507.967 219.32 507.807 219.68 507.807 220.112C507.807 220.592 507.991 220.976 508.359 221.264C508.743 221.536 509.263 221.672 509.919 221.672C510.543 221.672 511.103 221.528 511.599 221.24C512.095 220.936 512.455 220.496 512.679 219.92L513.255 221.648C512.983 222.48 512.487 223.112 511.767 223.544C511.047 223.976 510.119 224.192 508.983 224.192ZM535.352 222.32V214.16H531.128L531.056 215.816C531.024 216.504 530.984 217.16 530.936 217.784C530.888 218.408 530.792 218.976 530.648 219.488C530.52 219.984 530.328 220.408 530.072 220.76C529.816 221.096 529.472 221.328 529.04 221.456L525.344 220.928C525.808 220.928 526.184 220.792 526.472 220.52C526.76 220.232 526.984 219.84 527.144 219.344C527.304 218.832 527.424 218.256 527.504 217.616C527.584 216.96 527.64 216.272 527.672 215.552L527.84 211.088H539.096V222.32H535.352ZM524.912 226.784V220.928H540.944V226.784H537.464V224H528.392V226.784H524.912ZM541.668 223.976L541.86 220.904C541.956 220.92 542.052 220.936 542.148 220.952C542.244 220.952 542.332 220.952 542.412 220.952C542.86 220.952 543.212 220.824 543.468 220.568C543.724 220.312 543.916 219.968 544.044 219.536C544.172 219.088 544.26 218.584 544.308 218.024C544.372 217.464 544.42 216.88 544.452 216.272L544.644 211.088H555.684V224H551.94V213.248L552.78 214.16H547.116L547.908 213.2L547.74 216.44C547.692 217.592 547.596 218.648 547.452 219.608C547.324 220.568 547.108 221.4 546.804 222.104C546.5 222.792 546.092 223.328 545.58 223.712C545.068 224.08 544.412 224.264 543.612 224.264C543.324 224.264 543.02 224.24 542.7 224.192C542.38 224.144 542.036 224.072 541.668 223.976ZM567.42 224V219.704L567.948 220.304H564.372C562.516 220.304 561.06 219.92 560.004 219.152C558.948 218.384 558.42 217.28 558.42 215.84C558.42 214.304 558.972 213.128 560.076 212.312C561.196 211.496 562.7 211.088 564.588 211.088H570.756V224H567.42ZM558.228 224L561.66 219.08H565.476L562.212 224H558.228ZM567.42 218.552V213.176L567.948 214.136H564.66C563.892 214.136 563.292 214.28 562.86 214.568C562.444 214.856 562.236 215.32 562.236 215.96C562.236 217.192 563.028 217.808 564.612 217.808H567.948L567.42 218.552ZM581.152 224V211.088H584.872V218.768L591.16 211.088H594.592V224H590.872V216.32L584.608 224H581.152ZM598.191 224V211.088H601.911V216.128H607.527V211.088H611.271V224H607.527V219.176H601.911V224H598.191ZM617.615 224V213.296L618.455 214.16H613.247V211.088H625.703V214.16H620.495L621.335 213.296V224H617.615ZM633.471 224.192C631.999 224.192 630.703 223.904 629.583 223.328C628.479 222.752 627.623 221.968 627.015 220.976C626.407 219.968 626.103 218.824 626.103 217.544C626.103 216.248 626.399 215.104 626.991 214.112C627.599 213.104 628.423 212.32 629.463 211.76C630.503 211.184 631.679 210.896 632.991 210.896C634.255 210.896 635.391 211.168 636.399 211.712C637.423 212.24 638.231 213.008 638.823 214.016C639.415 215.008 639.711 216.2 639.711 217.592C639.711 217.736 639.703 217.904 639.687 218.096C639.671 218.272 639.655 218.44 639.639 218.6H629.151V216.416H637.671L636.231 217.064C636.231 216.392 636.095 215.808 635.823 215.312C635.551 214.816 635.175 214.432 634.695 214.16C634.215 213.872 633.655 213.728 633.015 213.728C632.375 213.728 631.807 213.872 631.311 214.16C630.831 214.432 630.455 214.824 630.183 215.336C629.911 215.832 629.775 216.424 629.775 217.112V217.688C629.775 218.392 629.927 219.016 630.231 219.56C630.551 220.088 630.991 220.496 631.551 220.784C632.127 221.056 632.799 221.192 633.567 221.192C634.255 221.192 634.855 221.088 635.367 220.88C635.895 220.672 636.375 220.36 636.807 219.944L638.799 222.104C638.207 222.776 637.463 223.296 636.567 223.664C635.671 224.016 634.639 224.192 633.471 224.192ZM640.832 223.976L641.024 220.904C641.12 220.92 641.216 220.936 641.312 220.952C641.408 220.952 641.496 220.952 641.576 220.952C642.024 220.952 642.376 220.824 642.632 220.568C642.888 220.312 643.08 219.968 643.208 219.536C643.336 219.088 643.424 218.584 643.472 218.024C643.536 217.464 643.584 216.88 643.616 216.272L643.808 211.088H654.848V224H651.104V213.248L651.944 214.16H646.28L647.072 213.2L646.904 216.44C646.856 217.592 646.76 218.648 646.616 219.608C646.488 220.568 646.272 221.4 645.968 222.104C645.664 222.792 645.256 223.328 644.744 223.712C644.232 224.08 643.576 224.264 642.776 224.264C642.488 224.264 642.184 224.24 641.864 224.192C641.544 224.144 641.2 224.072 640.832 223.976ZM656.816 223.976L657.008 220.904C657.104 220.92 657.2 220.936 657.296 220.952C657.392 220.952 657.48 220.952 657.56 220.952C658.008 220.952 658.36 220.824 658.616 220.568C658.872 220.312 659.064 219.968 659.192 219.536C659.32 219.088 659.408 218.584 659.456 218.024C659.52 217.464 659.568 216.88 659.6 216.272L659.792 211.088H670.832V224H667.088V213.248L667.928 214.16H662.264L663.056 213.2L662.888 216.44C662.84 217.592 662.744 218.648 662.6 219.608C662.472 220.568 662.256 221.4 661.952 222.104C661.648 222.792 661.24 223.328 660.728 223.712C660.216 224.08 659.56 224.264 658.76 224.264C658.472 224.264 658.168 224.24 657.848 224.192C657.528 224.144 657.184 224.072 656.816 223.976ZM680.745 224.192C679.273 224.192 677.977 223.904 676.857 223.328C675.753 222.752 674.897 221.968 674.289 220.976C673.681 219.968 673.377 218.824 673.377 217.544C673.377 216.248 673.673 215.104 674.265 214.112C674.873 213.104 675.697 212.32 676.737 211.76C677.777 211.184 678.953 210.896 680.265 210.896C681.529 210.896 682.665 211.168 683.673 211.712C684.697 212.24 685.505 213.008 686.097 214.016C686.689 215.008 686.985 216.2 686.985 217.592C686.985 217.736 686.977 217.904 686.961 218.096C686.945 218.272 686.929 218.44 686.913 218.6H676.425V216.416H684.945L683.505 217.064C683.505 216.392 683.369 215.808 683.097 215.312C682.825 214.816 682.449 214.432 681.969 214.16C681.489 213.872 680.929 213.728 680.289 213.728C679.649 213.728 679.081 213.872 678.585 214.16C678.105 214.432 677.729 214.824 677.457 215.336C677.185 215.832 677.049 216.424 677.049 217.112V217.688C677.049 218.392 677.201 219.016 677.505 219.56C677.825 220.088 678.265 220.496 678.825 220.784C679.401 221.056 680.073 221.192 680.841 221.192C681.529 221.192 682.129 221.088 682.641 220.88C683.169 220.672 683.649 220.36 684.081 219.944L686.073 222.104C685.481 222.776 684.737 223.296 683.841 223.664C682.945 224.016 681.913 224.192 680.745 224.192ZM698.999 224L694.679 217.88L697.727 216.08L703.415 224H698.999ZM689.855 224V211.088H693.599V224H689.855ZM692.495 219.104V216.104H697.007V219.104H692.495ZM698.087 217.976L694.583 217.592L699.119 211.088H703.103L698.087 217.976ZM707.896 224V213.296L708.736 214.16H703.528V211.088H715.984V214.16H710.776L711.616 213.296V224H707.896ZM719.802 228.848C719.13 228.848 718.466 228.744 717.81 228.536C717.154 228.328 716.618 228.04 716.202 227.672L717.57 225.008C717.858 225.264 718.186 225.464 718.554 225.608C718.938 225.752 719.314 225.824 719.682 225.824C720.21 225.824 720.626 225.696 720.93 225.44C721.25 225.2 721.538 224.792 721.794 224.216L722.466 222.632L722.754 222.224L727.386 211.088H730.986L725.154 224.792C724.738 225.832 724.258 226.648 723.714 227.24C723.186 227.832 722.594 228.248 721.938 228.488C721.298 228.728 720.586 228.848 719.802 228.848ZM722.01 224.504L716.25 211.088H720.114L724.578 221.888L722.01 224.504ZM740.098 224V221.48L739.858 220.928V216.416C739.858 215.616 739.61 214.992 739.114 214.544C738.634 214.096 737.89 213.872 736.882 213.872C736.194 213.872 735.514 213.984 734.842 214.208C734.186 214.416 733.626 214.704 733.162 215.072L731.818 212.456C732.522 211.96 733.37 211.576 734.362 211.304C735.354 211.032 736.362 210.896 737.386 210.896C739.354 210.896 740.882 211.36 741.97 212.288C743.058 213.216 743.602 214.664 743.602 216.632V224H740.098ZM736.162 224.192C735.154 224.192 734.29 224.024 733.57 223.688C732.85 223.336 732.298 222.864 731.914 222.272C731.53 221.68 731.338 221.016 731.338 220.28C731.338 219.512 731.522 218.84 731.89 218.264C732.274 217.688 732.874 217.24 733.69 216.92C734.506 216.584 735.57 216.416 736.882 216.416H740.314V218.6H737.29C736.41 218.6 735.802 218.744 735.466 219.032C735.146 219.32 734.986 219.68 734.986 220.112C734.986 220.592 735.17 220.976 735.538 221.264C735.922 221.536 736.442 221.672 737.098 221.672C737.722 221.672 738.282 221.528 738.778 221.24C739.274 220.936 739.634 220.496 739.858 219.92L740.434 221.648C740.162 222.48 739.666 223.112 738.946 223.544C738.226 223.976 737.298 224.192 736.162 224.192ZM745.223 223.976L745.415 220.904C745.511 220.92 745.607 220.936 745.703 220.952C745.799 220.952 745.887 220.952 745.967 220.952C746.415 220.952 746.767 220.824 747.023 220.568C747.279 220.312 747.471 219.968 747.599 219.536C747.727 219.088 747.815 218.584 747.863 218.024C747.927 217.464 747.975 216.88 748.007 216.272L748.199 211.088H759.239V224H755.495V213.248L756.335 214.16H750.671L751.463 213.2L751.295 216.44C751.247 217.592 751.151 218.648 751.007 219.608C750.879 220.568 750.663 221.4 750.359 222.104C750.055 222.792 749.647 223.328 749.135 223.712C748.623 224.08 747.967 224.264 747.167 224.264C746.879 224.264 746.575 224.24 746.255 224.192C745.935 224.144 745.591 224.072 745.223 223.976ZM769.823 215.216C771.519 215.232 772.807 215.616 773.687 216.368C774.583 217.104 775.031 218.152 775.031 219.512C775.031 220.936 774.527 222.048 773.519 222.848C772.511 223.632 771.111 224.024 769.319 224.024L762.839 224V211.088H766.559V215.216H769.823ZM768.983 221.36C769.703 221.376 770.255 221.224 770.639 220.904C771.023 220.584 771.215 220.104 771.215 219.464C771.215 218.824 771.023 218.368 770.639 218.096C770.255 217.808 769.703 217.656 768.983 217.64L766.559 217.616V221.36H768.983ZM777.37 224V211.088H781.09V216.128H786.706V211.088H790.45V224H786.706V219.176H781.09V224H777.37ZM807.33 224V211.088H811.05V224H807.33ZM800.826 215.216C802.522 215.232 803.794 215.616 804.642 216.368C805.506 217.104 805.938 218.152 805.938 219.512C805.938 220.936 805.45 222.048 804.474 222.848C803.498 223.632 802.114 224.024 800.322 224.024L794.034 224V211.088H797.754V215.216H800.826ZM799.986 221.36C800.706 221.376 801.258 221.224 801.642 220.904C802.026 220.584 802.218 220.104 802.218 219.464C802.218 218.824 802.026 218.368 801.642 218.096C801.258 217.808 800.706 217.656 799.986 217.64L797.754 217.616V221.36H799.986ZM812.931 224L818.715 216.416L818.643 218.48L813.099 211.088H817.299L820.803 215.912L819.219 215.96L822.843 211.088H826.827L821.259 218.408V216.392L827.019 224H822.771L819.099 218.864L820.659 219.08L817.011 224H812.931ZM835.659 224V211.088H839.379V218.768L845.667 211.088H849.099V224H845.379V216.32L839.115 224H835.659ZM852.698 224V211.088H863.042V214.16H855.578L856.418 213.344V224H852.698ZM872.635 224.192C871.547 224.192 870.595 223.952 869.779 223.472C868.963 222.992 868.323 222.264 867.859 221.288C867.411 220.296 867.187 219.048 867.187 217.544C867.187 216.024 867.403 214.776 867.835 213.8C868.267 212.824 868.891 212.096 869.707 211.616C870.523 211.136 871.499 210.896 872.635 210.896C873.851 210.896 874.939 211.176 875.899 211.736C876.875 212.28 877.643 213.048 878.203 214.04C878.779 215.032 879.067 216.2 879.067 217.544C879.067 218.904 878.779 220.08 878.203 221.072C877.643 222.064 876.875 222.832 875.899 223.376C874.939 223.92 873.851 224.192 872.635 224.192ZM865.003 228.656V211.088H868.579V213.728L868.507 217.568L868.747 221.384V228.656H865.003ZM871.987 221.12C872.611 221.12 873.163 220.976 873.643 220.688C874.139 220.4 874.531 219.992 874.819 219.464C875.123 218.92 875.275 218.28 875.275 217.544C875.275 216.792 875.123 216.152 874.819 215.624C874.531 215.096 874.139 214.688 873.643 214.4C873.163 214.112 872.611 213.968 871.987 213.968C871.363 213.968 870.803 214.112 870.307 214.4C869.811 214.688 869.419 215.096 869.131 215.624C868.843 216.152 868.699 216.792 868.699 217.544C868.699 218.28 868.843 218.92 869.131 219.464C869.419 219.992 869.811 220.4 870.307 220.688C870.803 220.976 871.363 221.12 871.987 221.12Z" fill="black"/>
<path d="M259.749 117V27.4H303.525C314.789 27.4 323.237 29.5333 328.869 33.8C334.586 38.0667 337.445 43.6987 337.445 50.696C337.445 55.3893 336.293 59.4853 333.989 62.984C331.685 66.3973 328.528 69.0427 324.517 70.92C320.506 72.7973 315.898 73.736 310.693 73.736L313.125 68.488C318.757 68.488 323.749 69.4267 328.101 71.304C332.453 73.096 335.824 75.784 338.213 79.368C340.688 82.952 341.925 87.3467 341.925 92.552C341.925 100.232 338.896 106.248 332.837 110.6C326.778 114.867 317.861 117 306.085 117H259.749ZM280.357 101.384H304.549C309.925 101.384 313.978 100.531 316.709 98.824C319.525 97.032 320.933 94.216 320.933 90.376C320.933 86.6213 319.525 83.848 316.709 82.056C313.978 80.1787 309.925 79.24 304.549 79.24H278.821V64.136H300.965C306 64.136 309.84 63.2827 312.485 61.576C315.216 59.784 316.581 57.096 316.581 53.512C316.581 50.0133 315.216 47.4107 312.485 45.704C309.84 43.912 306 43.016 300.965 43.016H280.357V101.384ZM356.216 117V48.136H375.288V67.592L372.6 61.96C374.648 57.096 377.933 53.4267 382.456 50.952C386.979 48.392 392.483 47.112 398.968 47.112V65.544C398.115 65.4587 397.347 65.416 396.664 65.416C395.981 65.3307 395.256 65.288 394.488 65.288C389.027 65.288 384.589 66.8667 381.176 70.024C377.848 73.096 376.184 77.9173 376.184 84.488V117H356.216ZM448.581 117V103.56L447.301 100.616V76.552C447.301 72.2853 445.978 68.9573 443.333 66.568C440.773 64.1787 436.805 62.984 431.429 62.984C427.76 62.984 424.133 63.5813 420.549 64.776C417.05 65.8853 414.064 67.4213 411.589 69.384L404.421 55.432C408.176 52.7867 412.698 50.7387 417.989 49.288C423.28 47.8373 428.656 47.112 434.117 47.112C444.613 47.112 452.762 49.5867 458.565 54.536C464.368 59.4853 467.269 67.208 467.269 77.704V117H448.581ZM427.589 118.024C422.213 118.024 417.605 117.128 413.765 115.336C409.925 113.459 406.981 110.941 404.933 107.784C402.885 104.627 401.861 101.085 401.861 97.16C401.861 93.064 402.842 89.48 404.805 86.408C406.853 83.336 410.053 80.9467 414.405 79.24C418.757 77.448 424.432 76.552 431.429 76.552H449.733V88.2H433.605C428.912 88.2 425.669 88.968 423.877 90.504C422.17 92.04 421.317 93.96 421.317 96.264C421.317 98.824 422.298 100.872 424.261 102.408C426.309 103.859 429.082 104.584 432.581 104.584C435.909 104.584 438.896 103.816 441.541 102.28C444.186 100.659 446.106 98.312 447.301 95.24L450.373 104.456C448.922 108.893 446.277 112.264 442.437 114.568C438.597 116.872 433.648 118.024 427.589 118.024ZM485.341 117V48.136H505.309V117H485.341ZM495.325 38.536C491.656 38.536 488.669 37.4693 486.365 35.336C484.061 33.2027 482.909 30.5573 482.909 27.4C482.909 24.2427 484.061 21.5973 486.365 19.464C488.669 17.3307 491.656 16.264 495.325 16.264C498.994 16.264 501.981 17.288 504.285 19.336C506.589 21.2987 507.741 23.8587 507.741 27.016C507.741 30.344 506.589 33.1173 504.285 35.336C502.066 37.4693 499.08 38.536 495.325 38.536ZM565.697 47.112C571.158 47.112 576.022 48.2213 580.289 50.44C584.641 52.5733 588.054 55.9013 590.529 60.424C593.004 64.8613 594.241 70.5787 594.241 77.576V117H574.273V80.648C574.273 75.1013 573.036 71.0053 570.561 68.36C568.172 65.7147 564.758 64.392 560.321 64.392C557.164 64.392 554.305 65.0747 551.745 66.44C549.27 67.72 547.308 69.7253 545.857 72.456C544.492 75.1867 543.809 78.6853 543.809 82.952V117H523.841V48.136H542.913V67.208L539.329 61.448C541.804 56.84 545.345 53.2987 549.953 50.824C554.561 48.3493 559.809 47.112 565.697 47.112ZM693.519 118.536C686.436 118.536 679.866 117.384 673.807 115.08C667.834 112.776 662.628 109.533 658.191 105.352C653.839 101.171 650.426 96.264 647.951 90.632C645.562 85 644.367 78.856 644.367 72.2C644.367 65.544 645.562 59.4 647.951 53.768C650.426 48.136 653.882 43.2293 658.319 39.048C662.756 34.8667 667.962 31.624 673.935 29.32C679.908 27.016 686.394 25.864 693.391 25.864C700.474 25.864 706.959 27.016 712.847 29.32C718.82 31.624 723.983 34.8667 728.335 39.048C732.772 43.2293 736.228 48.136 738.703 53.768C741.178 59.3147 742.415 65.4587 742.415 72.2C742.415 78.856 741.178 85.0427 738.703 90.76C736.228 96.392 732.772 101.299 728.335 105.48C723.983 109.576 718.82 112.776 712.847 115.08C706.959 117.384 700.516 118.536 693.519 118.536ZM693.391 100.872C697.402 100.872 701.071 100.189 704.399 98.824C707.812 97.4587 710.799 95.496 713.359 92.936C715.919 90.376 717.882 87.3467 719.247 83.848C720.698 80.3493 721.423 76.4667 721.423 72.2C721.423 67.9333 720.698 64.0507 719.247 60.552C717.882 57.0533 715.919 54.024 713.359 51.464C710.884 48.904 707.94 46.9413 704.527 45.576C701.114 44.2107 697.402 43.528 693.391 43.528C689.38 43.528 685.668 44.2107 682.255 45.576C678.927 46.9413 675.983 48.904 673.423 51.464C670.863 54.024 668.858 57.0533 667.407 60.552C666.042 64.0507 665.359 67.9333 665.359 72.2C665.359 76.3813 666.042 80.264 667.407 83.848C668.858 87.3467 670.82 90.376 673.295 92.936C675.855 95.496 678.842 97.4587 682.255 98.824C685.668 100.189 689.38 100.872 693.391 100.872ZM785.647 118.024C779.93 118.024 774.81 116.915 770.287 114.696C765.85 112.477 762.394 109.107 759.919 104.584C757.444 99.976 756.207 94.1307 756.207 87.048V48.136H776.175V84.104C776.175 89.8213 777.37 94.0453 779.759 96.776C782.234 99.4213 785.69 100.744 790.127 100.744C793.199 100.744 795.93 100.104 798.319 98.824C800.708 97.4587 802.586 95.4107 803.951 92.68C805.316 89.864 805.999 86.3653 805.999 82.184V48.136H825.967V117H807.023V98.056L810.479 103.56C808.175 108.339 804.762 111.965 800.239 114.44C795.802 116.829 790.938 118.024 785.647 118.024ZM872.626 118.024C864.519 118.024 858.205 115.976 853.682 111.88C849.159 107.699 846.898 101.512 846.898 93.32V32.904H866.866V93.064C866.866 95.9653 867.634 98.2267 869.17 99.848C870.706 101.384 872.797 102.152 875.442 102.152C878.599 102.152 881.287 101.299 883.506 99.592L888.882 113.672C886.834 115.123 884.359 116.232 881.458 117C878.642 117.683 875.698 118.024 872.626 118.024ZM836.274 65.032V49.672H884.018V65.032H836.274Z" fill="black"/>
<circle cx="692.45" cy="72.1236" r="49.8798" fill="#FFB800"/>
<ellipse cx="692.562" cy="139.978" rx="23.4795" ry="15.9526" fill="#978FF4"/>
<ellipse cx="692.45" cy="155.818" rx="21.1203" ry="12.6946" fill="#8E84F3"/>
<line x1="683.052" y1="120.695" x2="676.761" y2="73.5109" stroke="white" stroke-width="4"/>
<line x1="708.583" y1="73.511" x2="702.296" y2="120.695" stroke="white" stroke-width="4"/>
<path d="M678.07 73.6962L688.405 76.1677L692.899 72.1234L698.291 76.1677L707.054 73.6962" stroke="white" stroke-width="3"/>
<rect x="656.451" y="113.915" width="4.04431" height="16.503" rx="2.02215" transform="rotate(30.9572 656.451 113.915)" fill="#FFB800"/>
<rect x="738.461" y="16.1769" width="4.04431" height="16.503" rx="2.02215" transform="rotate(30.9572 738.461 16.1769)" fill="#FFB800"/>
<rect x="695.82" y="16.5029" width="4.04431" height="16.503" rx="2.02215" transform="rotate(-180 695.82 16.5029)" fill="#FFB800"/>
<rect x="724.13" y="115.995" width="4.04431" height="16.503" rx="2.02215" transform="rotate(-30.96 724.13 115.995)" fill="#FFB800"/>
<rect x="645.49" y="16.2354" width="4.04431" height="16.503" rx="2.02215" transform="rotate(-30.96 645.49 16.2354)" fill="#FFB800"/>
<rect x="747.497" y="75.2693" width="4.04431" height="16.503" rx="2.02215" transform="rotate(-90 747.497 75.2693)" fill="#FFB800"/>
<rect x="621" y="75.2693" width="4.04431" height="16.503" rx="2.02215" transform="rotate(-90 621 75.2693)" fill="#FFB800"/>
</svg>
