<svg width="182" height="30" viewBox="0 0 182 30" fill="none" xmlns="http://www.w3.org/2000/svg">
<path d="M0.867656 29V3.8H13.7557C17.0677 3.8 19.5397 4.412 21.1717 5.636C22.8037 6.836 23.6197 8.42 23.6197 10.388C23.6197 11.684 23.2717 12.824 22.5757 13.808C21.9037 14.768 20.9437 15.536 19.6957 16.112C18.4717 16.664 17.0077 16.94 15.3037 16.94L16.0237 15.212C17.7997 15.212 19.3477 15.488 20.6677 16.04C21.9877 16.568 23.0077 17.348 23.7277 18.38C24.4717 19.388 24.8437 20.624 24.8437 22.088C24.8437 24.272 23.9557 25.976 22.1797 27.2C20.4277 28.4 17.8597 29 14.4757 29H0.867656ZM7.92366 23.852H13.8997C15.1237 23.852 16.0477 23.648 16.6717 23.24C17.3197 22.808 17.6437 22.16 17.6437 21.296C17.6437 20.432 17.3197 19.796 16.6717 19.388C16.0477 18.956 15.1237 18.74 13.8997 18.74H7.41966V13.808H12.8197C14.0197 13.808 14.9197 13.604 15.5197 13.196C16.1197 12.788 16.4197 12.176 16.4197 11.36C16.4197 10.544 16.1197 9.944 15.5197 9.56C14.9197 9.152 14.0197 8.948 12.8197 8.948H7.92366V23.852ZM28.2116 29V9.488H34.7276V15.176L33.7556 13.556C34.3316 12.092 35.2676 11 36.5636 10.28C37.8596 9.536 39.4316 9.164 41.2796 9.164V15.32C40.9676 15.272 40.6916 15.248 40.4516 15.248C40.2356 15.224 39.9956 15.212 39.7316 15.212C38.3396 15.212 37.2116 15.596 36.3476 16.364C35.4836 17.108 35.0516 18.332 35.0516 20.036V29H28.2116ZM54.8581 29V25.364L54.3901 24.464V17.768C54.3901 16.688 54.0541 15.86 53.3821 15.284C52.7341 14.684 51.6901 14.384 50.2501 14.384C49.3141 14.384 48.3661 14.54 47.4061 14.852C46.4461 15.14 45.6301 15.548 44.9581 16.076L42.6541 11.432C43.7581 10.712 45.0781 10.16 46.6141 9.776C48.1741 9.368 49.7221 9.164 51.2581 9.164C54.4261 9.164 56.8741 9.896 58.6021 11.36C60.3541 12.8 61.2301 15.068 61.2301 18.164V29H54.8581ZM49.0981 29.324C47.5381 29.324 46.2181 29.06 45.1381 28.532C44.0581 28.004 43.2301 27.284 42.6541 26.372C42.1021 25.46 41.8261 24.44 41.8261 23.312C41.8261 22.112 42.1261 21.08 42.7261 20.216C43.3501 19.328 44.2981 18.656 45.5701 18.2C46.8421 17.72 48.4861 17.48 50.5021 17.48H55.1101V21.044H51.4381C50.3341 21.044 49.5541 21.224 49.0981 21.584C48.6661 21.944 48.4501 22.424 48.4501 23.024C48.4501 23.624 48.6781 24.104 49.1341 24.464C49.5901 24.824 50.2141 25.004 51.0061 25.004C51.7501 25.004 52.4221 24.824 53.0221 24.464C53.6461 24.08 54.1021 23.504 54.3901 22.736L55.3261 25.256C54.9661 26.6 54.2581 27.62 53.2021 28.316C52.1701 28.988 50.8021 29.324 49.0981 29.324ZM65.5476 29V9.488H72.3876V29H65.5476ZM68.9676 7.328C67.7196 7.328 66.7116 6.98 65.9436 6.284C65.1756 5.588 64.7916 4.724 64.7916 3.692C64.7916 2.66 65.1756 1.796 65.9436 1.1C66.7116 0.403999 67.7196 0.0559993 68.9676 0.0559993C70.2156 0.0559993 71.2236 0.391999 71.9916 1.064C72.7596 1.712 73.1436 2.552 73.1436 3.584C73.1436 4.664 72.7596 5.564 71.9916 6.284C71.2476 6.98 70.2396 7.328 68.9676 7.328ZM89.5407 9.164C91.0527 9.164 92.4207 9.476 93.6447 10.1C94.8687 10.7 95.8287 11.636 96.5247 12.908C97.2447 14.18 97.6047 15.824 97.6047 17.84V29H90.7647V18.956C90.7647 17.564 90.4767 16.556 89.9007 15.932C89.3487 15.284 88.5687 14.96 87.5607 14.96C86.8407 14.96 86.1807 15.128 85.5807 15.464C84.9807 15.776 84.5127 16.268 84.1767 16.94C83.8407 17.612 83.6727 18.488 83.6727 19.568V29H76.8327V9.488H83.3487V15.032L82.0887 13.412C82.8327 11.996 83.8527 10.94 85.1487 10.244C86.4447 9.524 87.9087 9.164 89.5407 9.164ZM125.408 29.504C123.392 29.504 121.532 29.18 119.828 28.532C118.124 27.884 116.636 26.972 115.364 25.796C114.116 24.596 113.144 23.204 112.448 21.62C111.752 20.036 111.404 18.296 111.404 16.4C111.404 14.504 111.752 12.764 112.448 11.18C113.144 9.596 114.116 8.216 115.364 7.04C116.636 5.84 118.124 4.916 119.828 4.268C121.532 3.62 123.392 3.296 125.408 3.296C127.448 3.296 129.308 3.62 130.988 4.268C132.692 4.916 134.168 5.84 135.416 7.04C136.664 8.216 137.636 9.596 138.332 11.18C139.052 12.764 139.412 14.504 139.412 16.4C139.412 18.296 139.052 20.048 138.332 21.656C137.636 23.24 136.664 24.62 135.416 25.796C134.168 26.972 132.692 27.884 130.988 28.532C129.308 29.18 127.448 29.504 125.408 29.504ZM125.408 23.6C126.368 23.6 127.256 23.432 128.072 23.096C128.912 22.76 129.632 22.28 130.232 21.656C130.856 21.008 131.336 20.24 131.672 19.352C132.032 18.464 132.212 17.48 132.212 16.4C132.212 15.296 132.032 14.312 131.672 13.448C131.336 12.56 130.856 11.804 130.232 11.18C129.632 10.532 128.912 10.04 128.072 9.704C127.256 9.368 126.368 9.2 125.408 9.2C124.448 9.2 123.548 9.368 122.708 9.704C121.892 10.04 121.172 10.532 120.548 11.18C119.948 11.804 119.468 12.56 119.108 13.448C118.772 14.312 118.604 15.296 118.604 16.4C118.604 17.48 118.772 18.464 119.108 19.352C119.468 20.24 119.948 21.008 120.548 21.656C121.172 22.28 121.892 22.76 122.708 23.096C123.548 23.432 124.448 23.6 125.408 23.6ZM151.029 29.324C149.445 29.324 148.017 29.012 146.745 28.388C145.497 27.764 144.513 26.792 143.793 25.472C143.097 24.128 142.749 22.436 142.749 20.396V9.488H149.589V19.28C149.589 20.792 149.865 21.872 150.417 22.52C150.993 23.168 151.797 23.492 152.829 23.492C153.501 23.492 154.113 23.336 154.665 23.024C155.217 22.712 155.661 22.22 155.997 21.548C156.333 20.852 156.501 19.964 156.501 18.884V9.488H163.341V29H156.825V23.492L158.085 25.04C157.413 26.48 156.441 27.56 155.169 28.28C153.897 28.976 152.517 29.324 151.029 29.324ZM176.459 29.324C173.963 29.324 172.019 28.712 170.627 27.488C169.235 26.24 168.539 24.368 168.539 21.872V5.132H175.379V21.8C175.379 22.496 175.571 23.048 175.955 23.456C176.339 23.84 176.831 24.032 177.431 24.032C178.247 24.032 178.943 23.828 179.519 23.42L181.211 28.208C180.635 28.592 179.927 28.868 179.087 29.036C178.247 29.228 177.371 29.324 176.459 29.324ZM165.695 15.32V10.208H179.843V15.32H165.695Z" fill="white"/>
</svg>
