<svg width="726" height="715" viewBox="0 0 726 715" fill="none" xmlns="http://www.w3.org/2000/svg">
<path d="M560.5 48L485.5 183.5L373 304L168 383.5L73 556.5" stroke="black"/>
<ellipse cx="45.3452" cy="45.88" rx="45.3452" ry="45.88" transform="matrix(0.959522 -0.281632 -0.281632 -0.959522 480.389 324.336)" fill="#FFBB03"/>
<ellipse cx="21.3449" cy="14.6733" rx="21.3449" ry="14.6733" transform="matrix(0.959522 -0.281632 -0.281632 -0.959522 477.149 227.718)" fill="#733A34"/>
<ellipse cx="19.2002" cy="11.6767" rx="19.2002" ry="11.6767" transform="matrix(0.959522 -0.281632 -0.281632 -0.959522 474.162 210.287)" fill="#602B29"/>
<line y1="-2" x2="43.7752" y2="-2" transform="matrix(0.153857 0.988093 0.988561 -0.150821 491.996 226.806)" stroke="white" stroke-width="4"/>
<line y1="-2" x2="43.7752" y2="-2" transform="matrix(-0.404506 -0.914535 -0.913289 0.407312 523.031 262.928)" stroke="white" stroke-width="4"/>
<path d="M498.026 269.836L506.402 265.009L511.369 267.428L515.025 262.478L523.309 262.416" stroke="white" stroke-width="3"/>
<rect width="3.68816" height="15.133" rx="1.84408" transform="matrix(0.674148 -0.738596 -0.731583 -0.681752 468.75 239.875)" fill="#FFB800"/>
<rect width="3.68816" height="15.133" rx="1.84408" transform="matrix(0.674148 -0.738596 -0.731583 -0.681752 565.605 305.14)" fill="#FFB800"/>
<rect width="3.67664" height="15.1796" rx="1.83832" transform="matrix(-0.959522 0.281632 0.281632 0.959522 528.325 315.769)" fill="#FFB800"/>
<rect width="3.68816" height="15.133" rx="1.84408" transform="matrix(0.966378 0.257125 0.247114 -0.968986 527.247 220.711)" fill="#FFB800"/>
<rect width="3.68816" height="15.133" rx="1.84408" transform="matrix(0.966378 0.257125 0.247114 -0.968986 484.493 328.891)" fill="#FFB800"/>
<rect width="3.72" height="15.0027" rx="1.86" transform="matrix(0.281632 0.959522 0.959522 -0.281632 558.18 250.673)" fill="#FFB800"/>
<rect width="3.72" height="15.0027" rx="1.86" transform="matrix(0.281632 0.959522 0.959522 -0.281632 447.838 283.06)" fill="#FFB800"/>
<ellipse cx="45.3452" cy="45.88" rx="45.3452" ry="45.88" transform="matrix(0.672801 -0.739823 -0.739823 -0.672801 628.033 173.635)" fill="#FFBB03"/>
<ellipse cx="21.3449" cy="14.6733" rx="21.3449" ry="14.6733" transform="matrix(0.672801 -0.739823 -0.739823 -0.672801 574.987 92.8153)" fill="#733A34"/>
<ellipse cx="19.2002" cy="11.6767" rx="19.2002" ry="11.6767" transform="matrix(0.672801 -0.739823 -0.739823 -0.672801 563.365 79.4854)" fill="#602B29"/>
<line y1="-2" x2="43.7752" y2="-2" transform="matrix(0.645581 0.763692 0.765672 -0.643232 587.19 84.3109)" stroke="white" stroke-width="4"/>
<line y1="-2" x2="43.7752" y2="-2" transform="matrix(-0.821338 -0.570442 -0.567918 0.823085 632.49 99.006)" stroke="white" stroke-width="4"/>
<path d="M614.733 117.917L619.373 109.436L624.873 108.917L625.419 102.787L632.461 98.4233" stroke="white" stroke-width="3"/>
<rect width="3.68816" height="15.133" rx="1.84408" transform="matrix(0.191311 -0.98153 -0.979498 -0.201454 574.142 107.568)" fill="#FFB800"/>
<rect width="3.68816" height="15.133" rx="1.84408" transform="matrix(0.191311 -0.98153 -0.979498 -0.201454 690.812 112.896)" fill="#FFB800"/>
<rect width="3.67664" height="15.1796" rx="1.83832" transform="matrix(-0.672801 0.739823 0.739823 0.672801 664.509 141.373)" fill="#FFB800"/>
<rect width="3.68816" height="15.133" rx="1.84408" transform="matrix(0.959022 -0.283333 -0.293238 -0.956039 614.121 60.7617)" fill="#FFB800"/>
<rect width="3.68816" height="15.133" rx="1.84408" transform="matrix(0.959022 -0.283333 -0.293238 -0.956039 633.908 175.388)" fill="#FFB800"/>
<rect width="3.72" height="15.0027" rx="1.86" transform="matrix(0.739823 0.672801 0.672801 -0.739823 656.127 70.2491)" fill="#FFB800"/>
<rect width="3.72" height="15.0027" rx="1.86" transform="matrix(0.739823 0.672801 0.672801 -0.739823 578.757 155.327)" fill="#FFB800"/>
<ellipse cx="45.3452" cy="45.88" rx="45.3452" ry="45.88" transform="matrix(0.918732 0.394881 0.394881 -0.918732 277.726 409.517)" fill="#FFBB03"/>
<ellipse cx="21.3449" cy="14.6733" rx="21.3449" ry="14.6733" transform="matrix(0.918732 0.394881 0.394881 -0.918732 336.838 333.023)" fill="#733A34"/>
<ellipse cx="19.2002" cy="11.6767" rx="19.2002" ry="11.6767" transform="matrix(0.918732 0.394881 0.394881 -0.918732 345.652 317.69)" fill="#602B29"/>
<line y1="-2" x2="43.7752" y2="-2" transform="matrix(-0.511528 0.859267 0.857691 0.514166 348.856 341.787)" stroke="white" stroke-width="4"/>
<line y1="-2" x2="43.7752" y2="-2" transform="matrix(0.271541 -0.962427 -0.963256 -0.268585 349.731 389.402)" stroke="white" stroke-width="4"/>
<path d="M326.064 378.78L335.594 380.402L337.878 385.433L343.851 383.951L350.272 389.185" stroke="white" stroke-width="3"/>
<rect width="3.68816" height="15.133" rx="1.84408" transform="matrix(0.990278 -0.1391 -0.128849 -0.991664 322.616 337.032)" fill="#FFB800"/>
<rect width="3.68816" height="15.133" rx="1.84408" transform="matrix(0.990278 -0.1391 -0.128849 -0.991664 355.612 449.067)" fill="#FFB800"/>
<rect width="3.67664" height="15.1796" rx="1.83832" transform="matrix(-0.918732 -0.394881 -0.394881 0.918732 320.116 433.484)" fill="#FFB800"/>
<rect width="3.68816" height="15.133" rx="1.84408" transform="matrix(0.58048 0.814275 0.808226 -0.588872 379.898 359.57)" fill="#FFB800"/>
<rect width="3.68816" height="15.133" rx="1.84408" transform="matrix(0.58048 0.814275 0.808226 -0.588872 277.983 415.643)" fill="#FFB800"/>
<rect width="3.72" height="15.0027" rx="1.86" transform="matrix(-0.394881 0.918732 0.918732 0.394881 384.622 402.374)" fill="#FFB800"/>
<rect width="3.72" height="15.0027" rx="1.86" transform="matrix(-0.394881 0.918732 0.918732 0.394881 278.97 356.964)" fill="#FFB800"/>
<ellipse cx="45.3452" cy="45.88" rx="45.3452" ry="45.88" transform="matrix(0.994971 -0.10016 -0.10016 -0.994971 136.923 520.111)" fill="#FFBB03"/>
<ellipse cx="21.3449" cy="14.6733" rx="21.3449" ry="14.6733" transform="matrix(0.994971 -0.10016 -0.10016 -0.994971 151.527 424.547)" fill="#733A34"/>
<ellipse cx="19.2002" cy="11.6767" rx="19.2002" ry="11.6767" transform="matrix(0.994971 -0.10016 -0.10016 -0.994971 151.8 406.864)" fill="#602B29"/>
<line y1="-2" x2="43.7752" y2="-2" transform="matrix(-0.0306909 0.999529 0.99943 0.0337614 166.288 426.385)" stroke="white" stroke-width="4"/>
<line y1="-2" x2="43.7752" y2="-2" transform="matrix(-0.229216 -0.973376 -0.972667 0.232204 190.142 467.603)" stroke="white" stroke-width="4"/>
<path d="M164.293 469.789L173.414 466.586L177.851 469.879L182.356 465.686L190.51 467.15" stroke="white" stroke-width="3"/>
<rect width="3.68816" height="15.133" rx="1.84408" transform="matrix(0.798607 -0.601853 -0.59356 -0.80479 141.033 434.951)" fill="#FFB800"/>
<rect width="3.68816" height="15.133" rx="1.84408" transform="matrix(0.798607 -0.601853 -0.59356 -0.80479 224.217 516.931)" fill="#FFB800"/>
<rect width="3.67664" height="15.1796" rx="1.83832" transform="matrix(-0.994971 0.10016 0.10016 0.994971 185.617 520.516)" fill="#FFB800"/>
<rect width="3.68816" height="15.133" rx="1.84408" transform="matrix(0.902519 0.430649 0.42129 -0.906926 202.059 426.884)" fill="#FFB800"/>
<rect width="3.68816" height="15.133" rx="1.84408" transform="matrix(0.902519 0.430649 0.42129 -0.906926 140.118 525.343)" fill="#FFB800"/>
<rect width="3.72" height="15.0027" rx="1.86" transform="matrix(0.10016 0.994971 0.994971 -0.10016 226.947 462.028)" fill="#FFB800"/>
<rect width="3.72" height="15.0027" rx="1.86" transform="matrix(0.10016 0.994971 0.994971 -0.10016 112.528 473.547)" fill="#FFB800"/>
<ellipse cx="45.3452" cy="45.88" rx="45.3452" ry="45.88" transform="matrix(0.994971 -0.10016 -0.10016 -0.994971 40.1125 692.36)" fill="#FFBB03"/>
<ellipse cx="21.3449" cy="14.6733" rx="21.3449" ry="14.6733" transform="matrix(0.994971 -0.10016 -0.10016 -0.994971 54.7168 596.796)" fill="#733A34"/>
<ellipse cx="19.2002" cy="11.6767" rx="19.2002" ry="11.6767" transform="matrix(0.994971 -0.10016 -0.10016 -0.994971 54.9895 579.113)" fill="#602B29"/>
<line y1="-2" x2="43.7752" y2="-2" transform="matrix(-0.0306909 0.999529 0.99943 0.0337614 69.4773 598.634)" stroke="white" stroke-width="4"/>
<line y1="-2" x2="43.7752" y2="-2" transform="matrix(-0.229216 -0.973376 -0.972667 0.232204 93.3313 639.852)" stroke="white" stroke-width="4"/>
<path d="M67.4828 642.039L76.6037 638.836L81.0409 642.128L85.5458 637.935L93.6995 639.399" stroke="white" stroke-width="3"/>
<rect width="3.68816" height="15.133" rx="1.84408" transform="matrix(0.798607 -0.601853 -0.59356 -0.80479 44.2229 607.2)" fill="#FFB800"/>
<rect width="3.68816" height="15.133" rx="1.84408" transform="matrix(0.798607 -0.601853 -0.59356 -0.80479 127.406 689.18)" fill="#FFB800"/>
<rect width="3.67664" height="15.1796" rx="1.83832" transform="matrix(-0.994971 0.10016 0.10016 0.994971 88.8069 692.765)" fill="#FFB800"/>
<rect width="3.68816" height="15.133" rx="1.84408" transform="matrix(0.902519 0.430649 0.42129 -0.906926 105.248 599.133)" fill="#FFB800"/>
<rect width="3.68816" height="15.133" rx="1.84408" transform="matrix(0.902519 0.430649 0.42129 -0.906926 43.3079 697.592)" fill="#FFB800"/>
<rect width="3.72" height="15.0027" rx="1.86" transform="matrix(0.10016 0.994971 0.994971 -0.10016 130.136 634.277)" fill="#FFB800"/>
<rect width="3.72" height="15.0027" rx="1.86" transform="matrix(0.10016 0.994971 0.994971 -0.10016 15.7173 645.796)" fill="#FFB800"/>
</svg>
