<svg width="717" height="706" viewBox="0 0 717 706" fill="none" xmlns="http://www.w3.org/2000/svg">
<path d="M158 48.5L236 184L348 301L553.5 376L651 547" stroke="black"/>
<ellipse cx="208.511" cy="264.904" rx="45.3452" ry="45.88" transform="rotate(-164.373 208.511 264.904)" fill="#FFBB03"/>
<ellipse cx="225.225" cy="204.77" rx="21.3449" ry="14.6733" transform="rotate(-164.373 225.225 204.77)" fill="#733A34"/>
<ellipse cx="229.248" cy="190.766" rx="19.2002" ry="11.6767" transform="rotate(-164.373 229.248 190.766)" fill="#602B29"/>
<line y1="-2" x2="43.7752" y2="-2" transform="matrix(-0.141239 0.989976 -0.990405 -0.138197 226.972 223.929)" stroke="white" stroke-width="4"/>
<line y1="-2" x2="43.7752" y2="-2" transform="matrix(0.392806 -0.919621 0.918411 0.395627 196.4 260.444)" stroke="white" stroke-width="4"/>
<path d="M221.491 267.032L213.054 262.312L208.118 264.794L204.399 259.891L196.115 259.935" stroke="white" stroke-width="3"/>
<rect width="3.68816" height="15.133" rx="1.84408" transform="matrix(-0.683516 -0.729935 0.722826 -0.69103 250.382 236.7)" fill="#FFB800"/>
<rect width="3.68816" height="15.133" rx="1.84408" transform="matrix(-0.683516 -0.729935 0.722826 -0.69103 154.368 303.195)" fill="#FFB800"/>
<rect x="191.78" y="313.348" width="3.67664" height="15.1796" rx="1.83832" transform="rotate(15.6267 191.78 313.348)" fill="#FFB800"/>
<rect width="3.68816" height="15.133" rx="1.84408" transform="matrix(-0.963019 0.269433 -0.259456 -0.965755 191.646 218.284)" fill="#FFB800"/>
<rect width="3.68816" height="15.133" rx="1.84408" transform="matrix(-0.963019 0.269433 -0.259456 -0.965755 235.776 325.91)" fill="#FFB800"/>
<rect x="161.097" y="248.638" width="3.72" height="15.0027" rx="1.86" transform="rotate(105.627 161.097 248.638)" fill="#FFB800"/>
<rect x="271.844" y="279.614" width="3.72" height="15.0027" rx="1.86" transform="rotate(105.627 271.844 279.614)" fill="#FFB800"/>
<ellipse cx="92.8798" cy="108.043" rx="45.3452" ry="45.88" transform="rotate(-133.015 92.8798 108.043)" fill="#FFBB03"/>
<ellipse cx="138.446" cy="65.3907" rx="21.3449" ry="14.6733" transform="rotate(-133.015 138.446 65.3907)" fill="#733A34"/>
<ellipse cx="149.169" cy="55.5259" rx="19.2002" ry="11.6767" transform="rotate(-133.015 149.169 55.5259)" fill="#602B29"/>
<line y1="-2" x2="43.7752" y2="-2" transform="matrix(-0.635785 0.771866 -0.773816 -0.633411 129.967 82.6595)" stroke="white" stroke-width="4"/>
<line y1="-2" x2="43.7752" y2="-2" transform="matrix(0.813993 -0.580875 0.578373 0.815773 84.8591 97.9313)" stroke="white" stroke-width="4"/>
<path d="M102.856 116.614L98.108 108.193L92.6012 107.744L91.977 101.622L84.8804 97.3483" stroke="white" stroke-width="3"/>
<rect width="3.68816" height="15.133" rx="1.84408" transform="matrix(-0.203818 -0.979009 0.976848 -0.213934 143.312 105.748)" fill="#FFB800"/>
<rect width="3.68816" height="15.133" rx="1.84408" transform="matrix(-0.203818 -0.979009 0.976848 -0.213934 26.7188 112.564)" fill="#FFB800"/>
<rect x="53.3823" y="140.703" width="3.67664" height="15.1796" rx="1.83832" transform="rotate(46.9854 53.3823 140.703)" fill="#FFB800"/>
<rect width="3.68816" height="15.133" rx="1.84408" transform="matrix(-0.962558 -0.271074 0.281017 -0.959703 102.738 59.4557)" fill="#FFB800"/>
<rect width="3.68816" height="15.133" rx="1.84408" transform="matrix(-0.962558 -0.271074 0.281017 -0.959703 84.415 174.325)" fill="#FFB800"/>
<rect x="60.8567" y="69.4784" width="3.72" height="15.0027" rx="1.86" transform="rotate(136.985 60.8567 69.4784)" fill="#FFB800"/>
<rect x="139.306" y="153.562" width="3.72" height="15.0027" rx="1.86" transform="rotate(136.985 139.306 153.562)" fill="#FFB800"/>
<ellipse cx="383.474" cy="380.41" rx="45.3452" ry="45.88" transform="rotate(156.01 383.474 380.41)" fill="#FFBB03"/>
<ellipse cx="358.005" cy="323.429" rx="21.3449" ry="14.6733" transform="rotate(156.01 358.005 323.429)" fill="#733A34"/>
<ellipse cx="352.175" cy="310.076" rx="19.2002" ry="11.6767" transform="rotate(156.01 352.175 310.076)" fill="#602B29"/>
<line y1="-2" x2="43.7752" y2="-2" transform="matrix(0.522449 0.852671 -0.851062 0.525066 371.567 337.074)" stroke="white" stroke-width="4"/>
<line y1="-2" x2="43.7752" y2="-2" transform="matrix(-0.283798 -0.958884 0.959751 -0.280852 371.3 384.696)" stroke="white" stroke-width="4"/>
<path d="M394.829 373.773L385.32 375.516L383.101 380.576L377.109 379.17L370.756 384.486" stroke="white" stroke-width="3"/>
<rect width="3.68816" height="15.133" rx="1.84408" transform="matrix(-0.991972 -0.126455 0.116187 -0.993227 397.744 331.985)" fill="#FFB800"/>
<rect width="3.68816" height="15.133" rx="1.84408" transform="matrix(-0.991972 -0.126455 0.116187 -0.993227 366.181 444.431)" fill="#FFB800"/>
<rect x="401.475" y="428.397" width="3.67664" height="15.1796" rx="1.83832" transform="rotate(-23.9895 401.475 428.397)" fill="#FFB800"/>
<rect width="3.68816" height="15.133" rx="1.84408" transform="matrix(-0.570044 0.821614 -0.815673 -0.578513 340.754 355.251)" fill="#FFB800"/>
<rect width="3.68816" height="15.133" rx="1.84408" transform="matrix(-0.570044 0.821614 -0.815673 -0.578513 443.376 410.019)" fill="#FFB800"/>
<rect x="336.577" y="398.113" width="3.72" height="15.0027" rx="1.86" transform="rotate(66.0105 336.577 398.113)" fill="#FFB800"/>
<rect x="441.641" y="351.358" width="3.72" height="15.0027" rx="1.86" transform="rotate(66.0105 441.641 351.358)" fill="#FFB800"/>
<ellipse cx="544.599" cy="463.009" rx="45.3452" ry="45.88" transform="rotate(-174.983 544.599 463.009)" fill="#FFBB03"/>
<ellipse cx="549.956" cy="400.826" rx="21.3449" ry="14.6733" transform="rotate(-174.983 549.956 400.826)" fill="#733A34"/>
<ellipse cx="551.332" cy="386.321" rx="19.2002" ry="11.6767" transform="rotate(-174.983 551.332 386.321)" fill="#602B29"/>
<line y1="-2" x2="43.7752" y2="-2" transform="matrix(0.0434402 0.999056 -0.998918 0.0465093 555.2 419.335)" stroke="white" stroke-width="4"/>
<line y1="-2" x2="43.7752" y2="-2" transform="matrix(0.216779 -0.976221 0.97555 0.219776 531.874 460.855)" stroke="white" stroke-width="4"/>
<path d="M557.748 462.711L548.587 459.625L544.192 462.973L539.634 458.839L531.499 460.407" stroke="white" stroke-width="3"/>
<rect width="3.68816" height="15.133" rx="1.84408" transform="matrix(-0.80622 -0.591615 0.583244 -0.812297 580.561 427.578)" fill="#FFB800"/>
<rect width="3.68816" height="15.133" rx="1.84408" transform="matrix(-0.80622 -0.591615 0.583244 -0.812297 498.43 510.614)" fill="#FFB800"/>
<rect x="537.072" y="513.705" width="3.67664" height="15.1796" rx="1.83832" transform="rotate(5.0174 537.072 513.705)" fill="#FFB800"/>
<rect width="3.68816" height="15.133" rx="1.84408" transform="matrix(-0.896952 0.442129 -0.432826 -0.901477 519.438 420.291)" fill="#FFB800"/>
<rect width="3.68816" height="15.133" rx="1.84408" transform="matrix(-0.896952 0.442129 -0.432826 -0.901477 582.629 517.952)" fill="#FFB800"/>
<rect x="495" y="455.75" width="3.72" height="15.0027" rx="1.86" transform="rotate(95.0174 495 455.75)" fill="#FFB800"/>
<rect x="609.557" y="465.808" width="3.72" height="15.0027" rx="1.86" transform="rotate(95.0174 609.557 465.808)" fill="#FFB800"/>
<ellipse cx="643.599" cy="634.009" rx="45.3452" ry="45.88" transform="rotate(-174.983 643.599 634.009)" fill="#FFBB03"/>
<ellipse cx="648.956" cy="571.826" rx="21.3449" ry="14.6733" transform="rotate(-174.983 648.956 571.826)" fill="#733A34"/>
<ellipse cx="650.332" cy="557.321" rx="19.2002" ry="11.6767" transform="rotate(-174.983 650.332 557.321)" fill="#602B29"/>
<line y1="-2" x2="43.7752" y2="-2" transform="matrix(0.0434402 0.999056 -0.998918 0.0465093 654.2 590.335)" stroke="white" stroke-width="4"/>
<line y1="-2" x2="43.7752" y2="-2" transform="matrix(0.216779 -0.976221 0.97555 0.219776 630.874 631.855)" stroke="white" stroke-width="4"/>
<path d="M656.748 633.711L647.587 630.625L643.192 633.973L638.634 629.839L630.499 631.407" stroke="white" stroke-width="3"/>
<rect width="3.68816" height="15.133" rx="1.84408" transform="matrix(-0.80622 -0.591615 0.583244 -0.812297 679.561 598.578)" fill="#FFB800"/>
<rect width="3.68816" height="15.133" rx="1.84408" transform="matrix(-0.80622 -0.591615 0.583244 -0.812297 597.43 681.614)" fill="#FFB800"/>
<rect x="636.072" y="684.705" width="3.67664" height="15.1796" rx="1.83832" transform="rotate(5.0174 636.072 684.705)" fill="#FFB800"/>
<rect width="3.68816" height="15.133" rx="1.84408" transform="matrix(-0.896952 0.442129 -0.432826 -0.901477 618.438 591.291)" fill="#FFB800"/>
<rect width="3.68816" height="15.133" rx="1.84408" transform="matrix(-0.896952 0.442129 -0.432826 -0.901477 681.629 688.952)" fill="#FFB800"/>
<rect x="594" y="626.75" width="3.72" height="15.0027" rx="1.86" transform="rotate(95.0174 594 626.75)" fill="#FFB800"/>
<rect x="708.557" y="636.808" width="3.72" height="15.0027" rx="1.86" transform="rotate(95.0174 708.557 636.808)" fill="#FFB800"/>
</svg>
